<?xml version="1.0" encoding="utf-8"?>
<!-- Generator: Adobe Illustrator 27.5.0, SVG Export Plug-In . SVG Version: 6.00 Build 0)  -->
<svg version="1.1" id="katman_1" xmlns="http://www.w3.org/2000/svg" xmlns:xlink="http://www.w3.org/1999/xlink" x="0px" y="0px"
	 viewBox="0 0 2163.67 1795" style="enable-background:new 0 0 2163.67 1795;" xml:space="preserve">
<style type="text/css">
	.st0{fill:none;stroke:#9499A5;stroke-width:2;}
	.st1{fill:none;stroke:#B9949E;stroke-width:2;}
	.st2{fill:none;stroke:#4D2E43;stroke-width:2;}
	.st3{fill:#28334A;}
	.st4{fill:#FFFFFF;}
	.st5{fill:#72293C;}
</style>
<g>
	<path vector-effect="non-scaling-stroke" class="st0" d="M990.04,1336c0.89-10.67,1.8-21.33,2.73-31.98
		c1-11.41,2.58-23.13,8.27-33.27c0.17-0.31,0.32-0.3,0.43,0.04c7.82,24.54,7.75,52.08,5.47,77.47
		c-3.46,38.4-11.02,76.67-20.58,114.03c-0.08,0.3,0.01,0.61,0.23,0.83c30.1,29.09,55.04,62.35,62.47,104.58
		c0.04,0.2,0.22,0.33,0.42,0.29c0.04-0.01,0.08-0.02,0.11-0.04c24.49-13.78,55.67-25.04,83.77-25.21c0.33,0,0.35,0.07,0.04,0.21
		c-21.88,10.23-42.8,20.19-62.83,33.8c-0.24,0.17-0.33,0.48-0.21,0.75c17.01,39.36,26.26,83.1,32.81,125.33
		c0.03,0.17,0.18,0.29,0.35,0.26c0.05-0.01,0.09-0.02,0.13-0.05c30.83-21.03,64-37.33,99.53-48.88c14.06-4.57,28.44-7.65,43.14-9.22
		c12.19-1.3,44.92-0.61,35.87,21.88c-7.5,18.6-33.65,27.65-51.88,27.94c-0.33,0-0.35-0.08-0.06-0.23c6.14-3.31,36-20.66,30.9-29.6
		c-5.37-9.41-49.8,3.74-58.64,6.87c-23.86,8.44-46.44,19.48-67.73,33.12c-2.82,1.81-4.72,4.13-1.84,7.06
		c0.22,0.23,0.53,0.36,0.85,0.37c8.16,0.31,16.32,0.37,24.49,0.17c2.08-0.05,5.36-0.82,6.77-1.54
		c13.17-6.75,22.74-11.44,28.72-14.09c0.17-0.07,0.37,0.01,0.44,0.18c0.02,0.04,0.02,0.08,0.03,0.12c0.09,3.67,0.16,7.33,0.22,11
		c0.07,3.81,2.49,4.57,5.94,4.55c14.4-0.09,30.97,0.58,43.91-1.45c24.36-3.83,49.3-17.68,61.07-40.19
		c10.26-19.62,0.98-34.4-9.93-50.69c-24.01-35.86-51.45-70.99-82.56-101.44c-0.23-0.23-0.56-0.33-0.89-0.29l-23.71,3.53
		c-0.31,0.05-0.63-0.1-0.79-0.37c-21.04-34.58-48.1-68.64-75.93-99.36c-0.23-0.25-0.33-0.6-0.27-0.94
		c6.5-34.83,13.9-69.63,18.18-104.8c2.83-23.27,4.75-52.39-5.1-74.39c-20.63-46.04-76.45-57.42-121.22-47.29
		c-0.08,0.01-0.15-0.01-0.2-0.06l-0.19-0.18c-0.11-0.11-0.12-0.29-0.01-0.4c0,0,0,0,0.01-0.01c15.8-15.59,43.9-19.78,65.06-16.7"/>
	<path vector-effect="non-scaling-stroke" class="st1" d="M1067.83,1177.71c12.24,2.16,23.6,6.6,34.09,13.33
		c0.25,0.16,0.58,0.16,0.84-0.01c30.07-19.81,51.21-34.78,75.86-47.8c0.2-0.1,0.27-0.35,0.17-0.54c-0.02-0.03-0.03-0.05-0.06-0.08
		l-14.61-16.66c-0.17-0.19-0.16-0.49,0.04-0.67c0.02-0.02,0.04-0.04,0.07-0.05c22.37-13.85,45.91-25.57,69.15-37.95
		c0.23-0.12,0.32-0.42,0.19-0.67c0,0,0,0,0,0l-26.78-48.7c-0.15-0.27-0.48-0.39-0.77-0.27c-33.73,13.62-64.96,31.48-93.69,53.57"/>
	<path vector-effect="non-scaling-stroke" class="st0" d="M1112.33,1091.21c15.79-19.75,34.23-36.63,55.3-50.65
		c2.31-1.53,6.07-4.18,11.28-7.94c0.27-0.19,0.24-0.32-0.09-0.38c-53.87-9.54-96.57-49.98-119.15-98.82
		c-16.36-35.39-24.59-74.27-26.25-113.17c-0.01-0.29,0.18-0.54,0.46-0.62c6.34-1.66,12.57-3.72,18.7-6.17"/>
	<path vector-effect="non-scaling-stroke" class="st1" d="M1052.58,813.46c0.26,0.12,0.4,0.22,0.42,0.53
		c2.18,36.93,9.72,73.37,24.57,107.78c14.59,33.79,39.69,65.86,72.69,82.77c25.54,13.09,54.85,13.96,80.37,0.87
		c20.81-10.68,35.47-30.1,45.31-50.58c23.8-49.47,25.48-107.08,8.84-159.07c-0.06-0.19,0.03-0.4,0.2-0.49
		c0.11-0.06,0.21-0.07,0.31-0.02"/>
	<path vector-effect="non-scaling-stroke" class="st0" d="M1285.29,795.25c30.39,47.93,30.39,108.44,7.78,159.72
		c-0.14,0.31-0.11,0.33,0.1,0.06c14.88-19.55,36.53-30.94,61.58-27.7c1.59,0.21,3.1,0.57,4.53,1.09c0.31,0.11,0.31,0.2-0.02,0.26
		c-12.86,2.28-24.03,7.7-33.52,16.25c-23.32,21.01-29.85,48.61-28.34,79.14c1.31,26.42,13.36,55.48,43.64,57.68"/>
	<path vector-effect="non-scaling-stroke" class="st1" d="M1341.04,1081.75c-0.67,7.17-1.37,14.34-2.1,21.51
		c-5.52,53.89-2.59,109.52,11.41,161.97c10.63,39.82,34.41,91.5,78.23,103.23"/>
	<path vector-effect="non-scaling-stroke" class="st0" d="M1428.58,1368.46c0.99,0.04,1.97-0.04,2.95-0.25
		c42.67-8.82,79.93-38.15,108.4-69.86c43.03-47.93,73.68-105.66,93.13-166.86c22.77-71.62,40.22-145.5,55.7-219.04
		c0.06-0.27-0.1-0.54-0.37-0.61c-21.47-6.04-38.05-20.1-51.24-36.4c-19.49-24.07-38.33-43.68-71.1-48.26
		c-11.04-1.55-19.53-2.03-25.47-1.44c-31.37,3.09-62.77,3.27-93.59-4.63"/>
	<path vector-effect="non-scaling-stroke" class="st1" d="M1446.99,821.11l-49.93,18.46c-0.29,0.11-0.52,0.35-0.63,0.65l-2.85,8.32"
		/>
	<path vector-effect="non-scaling-stroke" class="st0" d="M1393.58,848.54c-13.12-10.29-27.03-19.37-41.74-27.25
		c-0.33-0.17-0.42-0.37-0.63-0.6"/>
	<path vector-effect="non-scaling-stroke" class="st1" d="M1351.21,820.69c-13.95-55.69-66.38-88.32-122.35-82.22
		c-0.83,0.09-0.89,0.35-0.19,0.8c12.45,7.83,24.3,17.01,31.76,29.95c0.26,0.45,0.16,0.55-0.29,0.29
		c-60.44-34.59-133.03-48.71-202.17-43.31c-0.2,0.01-0.35,0.19-0.33,0.39c0,0.04,0.01,0.09,0.03,0.12
		c7.78,16.61,13.65,33.86,17.61,51.77c0.08,0.37-0.08,0.75-0.41,0.94c-7.37,4.21-15.03,7.69-22.98,10.42"/>
	<path vector-effect="non-scaling-stroke" class="st0" d="M1051.89,789.84c-67.3,20.84-144.89,3.36-179.85-62.62
		c-0.14-0.26-0.44-0.4-0.73-0.34l-30.98,6.66"/>
	<path vector-effect="non-scaling-stroke" class="st1" d="M840.33,733.54c-0.24-0.1-0.3-0.26-0.17-0.47
		c9.99-16.7,20.04-33.38,30.15-50.05c0.16-0.26,0.15-0.59-0.02-0.85l-11.85-17.22c-0.19-0.29-0.52-0.45-0.86-0.44l-42.2,1.54"/>
	<path vector-effect="non-scaling-stroke" class="st0" d="M815.38,666.05c1.09-24.99,2.11-49.91,3.08-74.78
		c0.1-2.51-0.14-4.98-0.72-7.43c-1.64-6.89-3.53-14.26-4.29-20.77c-1.29-10.93-1.3-21.9-0.04-32.9c1.24-10.79,4.62-17.74,8.21-26.66
		c5.17-12.86,6.88-25.16,5.39-38.71c-0.83-7.61-4.68-16.83-5.64-23.8c-2.07-14.93-0.22-29.15,5.56-42.64
		c2.83-6.61,4.42-10.46,4.77-11.55c3.46-11.07,4.45-22.43,2.98-34.06c-1.12-8.84-4.99-17.28-5.9-25.89
		c-1.13-10.79-0.09-21.36,3.11-31.73c1.66-5.36,5.4-12.4,6.92-16.94c4.4-13.12,5.41-26.52,3.04-40.19c-0.34-1.97-1.67-7.13-4-15.5
		c-6.4-23.02,4.69-51.8,14.28-73.34c0.1-0.22,0.06-0.49-0.11-0.66l-52.99-56.15c-0.19-0.21-0.52-0.22-0.72-0.02
		c-0.02,0.02-0.03,0.03-0.05,0.05l-47.67,57.44c-0.21,0.26-0.28,0.6-0.19,0.92c5.54,19.32,8.94,42.3,4.4,62.11
		c-1.98,8.64-7.33,18.97-9.88,27.72c-2.89,9.9-3.64,20.33-2.27,31.28c0.89,7.12,4.51,15.95,5.43,22.15
		c1.71,11.45,1.06,22.7-1.93,33.75c-2.37,8.76-7.29,16.92-9.41,25.37c-2.46,9.79-3.07,19.71-1.83,29.75
		c0.87,7.07,4.53,15.82,5.41,22.13c1.48,10.63,1.03,21.11-1.36,31.45c-1.34,5.77-4.12,11.64-6.47,17.4
		c-5.11,12.52-6.82,24.6-5.59,37.92c1.08,11.65,6.16,21.16,6.37,33.48c0.26,15.19-2.02,29.49-6.84,42.92
		c-2.39,6.64-8.08,14.46-8.71,21.52c-2.51,27.91-5,55.86-7.47,83.87"/>
	<path vector-effect="non-scaling-stroke" class="st1" d="M710.25,673.56c-0.33,0.22-0.72,0.34-1.17,0.37
		c-16.65,1.11-33.29,2.12-49.93,3.05c-0.22,0.01-0.38,0.19-0.37,0.41c0,0.04,0.01,0.08,0.02,0.11l9.44,26.61
		c0.09,0.25,0.35,0.38,0.6,0.31c11.84-3.41,23.92-4.88,36.23-4.41c0.36,0.01,0.69,0.14,0.96,0.37l8.8,7.44
		c0.25,0.21,0.62,0.21,0.88,0.01c11.11-8.79,23.6-14.63,37.48-17.53c0.28-0.05,0.49-0.29,0.51-0.58l0.89-14.46
		c0.01-0.15,0.14-0.27,0.3-0.26c0.05,0,0.1,0.02,0.14,0.04c21.81,13.76,47.44,14.54,72.42,12.51c0.43-0.03,0.53,0.13,0.3,0.49
		l-14.35,22.27c-0.11,0.18-0.06,0.41,0.12,0.52c0.02,0.01,0.04,0.02,0.06,0.03c11.43,4.45,20.09,12.1,26,22.93"/>
	<path vector-effect="non-scaling-stroke" class="st0" d="M839.58,733.79c4.37,10.81,5.59,22,3.68,33.56
		c-0.01,0.09-0.08,0.15-0.17,0.15h-0.26c-0.1,0-0.19-0.07-0.21-0.17c-2.49-10.61-9.48-21.92-19.81-25.49
		c-17.19-5.95-28.73,13.75-32.51,27.16c-4.28,15.17-4.92,30.17-1.91,44.98c8.12,40.02,38.4,31.05,52.9,2.81
		c0.48-0.93,0.74-0.87,0.77,0.18c0.36,10.75-2.13,20.74-7.48,29.99"/>
	<path vector-effect="non-scaling-stroke" class="st2" d="M1351.21,820.69c-20.55-9.05-42.34-17.77-65.39-26.16
		c-0.33-0.12-0.7,0.03-0.85,0.36c-0.05,0.11,0.06,0.23,0.32,0.36"/>
	<path vector-effect="non-scaling-stroke" class="st2" d="M1052.58,813.46c0.25-0.45,0.36-0.94,0.35-1.47
		c-0.27-7.43-0.62-14.81-1.04-22.15"/>
	<path vector-effect="non-scaling-stroke" class="st0" d="M1428.58,1368.04c0.25-0.51,0.44-1.04,0.58-1.58
		c2.43-9.61,5-19.18,7.71-28.71"/>
	<path vector-effect="non-scaling-stroke" class="st2" d="M1436.87,1337.75c43.29-19.71,79.78-51.74,106.71-90.79
		c24.57-35.63,43.8-74.95,57.69-117.98c5.56-17.21,10.73-34.55,15.5-52c13.61-49.77,26.08-99.83,37.41-150.19
		c0.07-0.29-0.07-0.59-0.33-0.74c-17.67-10.06-31.21-18.95-43.8-32.5c-1.44-1.55-5.08-5.66-10.91-12.34
		c-18.62-21.35-40-24.32-67.31-21.93c-3.9,0.34-8.67,0.43-12.33,0.26c-18.49-0.89-36.8-3.37-54.92-7.45"/>
	<path vector-effect="non-scaling-stroke" class="st0" d="M1464.58,852.09L1446.79,822"/>
	<path vector-effect="non-scaling-stroke" class="st2" d="M1446.99,821.11l-0.2,0.89"/>
	<path vector-effect="non-scaling-stroke" class="st1" d="M1446.79,822c-0.33-0.1-0.53-0.01-0.62,0.27
		c-20.03,63.13-37.8,125.79-53.33,187.98c-21.56,86.38-28.14,180.21-7.48,266.73c7.71,32.31,21.25,65.95,43.22,91.06"/>
	<path vector-effect="non-scaling-stroke" class="st2" d="M1428.58,1368.04v0.42"/>
	<path vector-effect="non-scaling-stroke" class="st2" d="M840.33,733.54l-0.75,0.25"/>
	<path vector-effect="non-scaling-stroke" class="st2" d="M1112.33,1091.21c-20.4,25.41-34.91,55.47-44.5,86.5"/>
	<path vector-effect="non-scaling-stroke" class="st0" d="M956.58,1347.29c-10.15,1.46-20.5,1.59-31.03,0.39
		c-0.73-0.09-1.36-0.56-1.65-1.24c-10.07-23.62-9.67-53.06-4.66-77.81c9.14-45.1,31.87-82.25,68.19-111.44
		c0.17-0.14,0.2-0.39,0.07-0.56c-0.01-0.02-0.03-0.03-0.04-0.05l-39.12-35.79"/>
	<path vector-effect="non-scaling-stroke" class="st2" d="M948.33,1120.79l12.46-11.29"/>
	<path vector-effect="non-scaling-stroke" class="st0" d="M960.79,1109.5l15.36,13.42c0.23,0.2,0.57,0.2,0.78-0.01l52.15-47.35
		c0.1-0.09,0.11-0.25,0.02-0.35c-0.01-0.01-0.02-0.02-0.03-0.03l-45.49-34.64"/>
	<path vector-effect="non-scaling-stroke" class="st2" d="M983.58,1040.54l13.85-13.39"/>
	<path vector-effect="non-scaling-stroke" class="st0" d="M997.43,1027.15l18.39,13.35c0.14,0.11,0.34,0.1,0.47-0.03l54.99-53.56
		c0.09-0.09,0.1-0.23,0.01-0.33c-0.02-0.02-0.04-0.03-0.06-0.04c-30.37-16.87-53.44-38.85-76.88-64.05
		c-16.53-17.76-38.16-37.53-60.48-47.49"/>
	<path vector-effect="non-scaling-stroke" class="st2" d="M933.87,875c-13.97-6.73-28.45-12.15-43.44-16.26"/>
	<path vector-effect="non-scaling-stroke" class="st0" d="M890.43,858.74c-5.57-1.96-11.29-3.46-17.14-4.49"/>
	<path vector-effect="non-scaling-stroke" class="st2" d="M1393.58,848.54c-22.18,77.01-41.48,153.7-52.54,233.21"/>
	<path vector-effect="non-scaling-stroke" class="st2" d="M815.38,666.05l-23.8,0.66"/>
	<path vector-effect="non-scaling-stroke" class="st0" d="M791.58,666.71c2.03-26.11,3.63-52.29,4.8-78.54
		c0.01-0.33-0.24-0.61-0.57-0.62c-0.01,0-0.01,0-0.02,0l-34.41-0.36c-0.3-0.01-0.55,0.22-0.57,0.52l-3.94,53.54"/>
	<path vector-effect="non-scaling-stroke" class="st2" d="M756.87,641.25c-7.85,13.42-14.34,28.81-32.59,31.44
		c-3.78,0.55-8.46,0.84-14.03,0.87"/>
	<path vector-effect="non-scaling-stroke" class="st1" d="M1464.58,852.09c-12.16,39.52-23.58,79.15-34.27,118.9
		c-7.07,26.34-12.74,49.34-17,69c-10.76,49.69-15.3,100.51-13.61,152.46c1.62,49.94,11.04,101.9,37.17,145.3"/>
	<path vector-effect="non-scaling-stroke" class="st1" d="M791.58,666.71c-17.28,0.28-27.89-10.83-34.71-25.46"/>
	<path vector-effect="non-scaling-stroke" class="st1" d="M933.87,875c3.87,8.19,8.34,16.03,13.42,23.53
		c23.71,35.02,54.63,66.71,90.62,89.25c0.19,0.12,0.24,0.38,0.12,0.57c-0.02,0.03-0.04,0.05-0.06,0.07l-40.54,38.73"/>
	<path vector-effect="non-scaling-stroke" class="st1" d="M983.58,1040.54l-62.89-47.24c-0.27-0.2-0.4-0.13-0.39,0.21
		c1.25,31.42,50.04,67.71,73.47,84.44c0.18,0.13,0.22,0.39,0.09,0.57c-0.01,0.02-0.03,0.04-0.05,0.06l-33.02,30.92"/>
	<path vector-effect="non-scaling-stroke" class="st2" d="M743.21,1185.95c-0.46-18.87,2-37.35,7.37-55.45
		c0.14-0.47,0.06-0.96-0.25-1.46"/>
	<path vector-effect="non-scaling-stroke" class="st1" d="M890.43,858.74c-3.15,39.58-13.13,76.26-34.92,109.74
		c-20.9,32.12-48.92,58.25-70.9,89.54c-15.16,21.59-26.32,45.08-33.48,70.49c-0.1,0.35-0.37,0.53-0.8,0.53"/>
	<path vector-effect="non-scaling-stroke" class="st0" d="M750.33,1129.04c-14.31-9.56-30.04-4.95-45.9-3.47
		c-52.34,4.9-99.7-20.32-123.27-67.19c-0.09-0.17-0.29-0.24-0.45-0.16c-0.05,0.03-0.1,0.07-0.13,0.12
		c-4.49,6.55-7.63,13.7-9.4,21.44c-0.09,0.36-0.26,0.41-0.52,0.15c-20.65-20.26-30.65-53.2-36.52-80.92
		c-0.04-0.17-0.21-0.27-0.37-0.23c-0.05,0.01-0.09,0.03-0.12,0.06c-54.96,45.94-44.4,128.6,6.06,172.38c0.23,0.2,0.28,0.54,0.1,0.79
		c-4.11,5.82-9.31,10.42-15.59,13.8c-0.39,0.21-0.39,0.43-0.02,0.66c47.14,28.98,104.46,38.71,158.56,26.69
		c22.04-4.9,42.65-13.71,60.45-27.21"/>
	<path vector-effect="non-scaling-stroke" class="st1" d="M743.21,1185.95c1.19,22.22,6.01,43.61,14.44,64.17
		c24.65,60.13,72.11,104.48,138.67,111.17c3.42,0.35,7.46,0.49,12.12,0.44c0.17,0,0.31-0.15,0.3-0.32c0-0.05-0.01-0.09-0.03-0.13
		c-6.79-13.18-10.87-27.59-12.23-43.23c-4.57-52.58,11.69-104.01,44.47-144.96c2.78-3.47,6.8-8.11,12.06-13.93
		c0.18-0.21,0.17-0.52-0.03-0.7c0,0,0,0,0,0c-20.23-17.92-38.98-36.71-56.25-56.37c-13.69-15.57-26.11-39.47-25.3-59.89
		c0.02-0.54,0.2-0.6,0.54-0.19c23.55,28.13,49.01,54.39,76.36,78.78"/>
	<path vector-effect="non-scaling-stroke" class="st1" d="M991.58,371.29c-3.65-4.95-6.96-10.02-9.94-15.19
		c-0.15-0.26-0.1-0.59,0.12-0.79c18.68-17.06,39.76-30.32,63.23-39.77c0.33-0.13,0.52-0.46,0.47-0.81
		c-0.91-5.93-1.37-11.89-1.4-17.88c0-0.24-0.2-0.44-0.44-0.44c-0.04,0-0.09,0.01-0.13,0.02c-36.65,10.42-70.97,29.2-100.39,53.3
		c-0.24,0.2-0.3,0.54-0.15,0.8l5.64,9.92c0.18,0.31,0.14,0.7-0.08,0.99c-26.03,32.73-47.03,68.43-62.98,107.11
		c-0.11,0.26,0.01,0.56,0.26,0.68l14.65,7.32c0.25,0.13,0.37,0.41,0.3,0.67c-10.89,39.59-15.3,80.02-11.79,120.55
		c0.02,0.34,0.25,0.64,0.57,0.77l17.78,7.01c0.33,0.13,0.56,0.42,0.61,0.77c2.93,20.47,7.14,40.68,12.61,60.61
		c0.09,0.32,0.39,0.52,0.71,0.49c10.15-1.11,20.34-1.57,30.55-1.4c0.29,0,0.52-0.22,0.53-0.51c0-0.05,0-0.09-0.02-0.13
		c-14.53-57.76-18.8-120-7.85-178.87c0.06-0.32,0.36-0.67,0.64-0.8"/>
	<path vector-effect="non-scaling-stroke" class="st0" d="M945.08,485.71l16.55,9.09c0.27,0.15,0.41,0.45,0.36,0.76
		c-10.01,58.43-5.82,115.72,12.57,171.89c0.1,0.29,0.33,0.52,0.63,0.61c24.59,7.26,50.02,19.65,67.29,39.12
		c0.21,0.24,0.53,0.37,0.85,0.34c17.99-1.22,35.99-1.33,54-0.33c0.24,0.01,0.45-0.18,0.45-0.43c0-0.02,0-0.04,0-0.06
		c-2.17-18.45-2.93-35.54,0.03-53.23c0.02-0.14,0.16-0.24,0.31-0.21c0,0,0.01,0,0.01,0c0.09,0.03,0.15,0.1,0.18,0.21
		c5.16,18.81,11.55,37.2,19.17,55.19c0.12,0.29,0.39,0.49,0.69,0.53c29.93,4.15,58.31,11.82,87.26,20.19
		c0.34,0.1,0.44-0.01,0.3-0.34c-14.55-32.97-25.13-67.18-31.74-102.62c-0.02-0.08,0.01-0.15,0.05-0.16c0,0,0,0,0,0l0.25-0.06
		c0.02,0,0.03,0.01,0.04,0.02c24.48,38.22,63.29,68.66,105.44,85.81c26.87,10.93,54.34,18.69,82.41,23.28
		c30.7,5.02,64.87,8.16,90.77-12.84c9.14-7.41,15.78-19.1,22.51-28.66c15.31-21.76,34.37-39.48,57.17-53.16
		c12.01-7.21,15.84-17.49,11.48-30.84c-12.38-37.9-11.73-74.76,12.49-107.84c0.46-0.63,0.3-0.99-0.48-1.07
		c-10.91-1.12-21.68,4.84-29.3,12.08c-22.01,20.92-23.55,55.84-15.63,83.21c0.09,0.32-0.02,0.44-0.34,0.35
		c-38.34-10.29-79.63-15.17-119.27-16.53c-33.19-1.14-67.77,1.9-99.95,10.26c-0.28,0.07-0.57-0.08-0.66-0.35
		c-4.09-11.19-6.41-27.94-0.83-38.83c5.62-10.97,18.11-13.41,28.78-8.16c5.91,2.91,10.32,7.7,13.21,14.37
		c0.13,0.3,0.23,0.29,0.28-0.03c3.99-24.79,34.74-30.49,45.48-6.53c0.12,0.27,0.39,0.44,0.68,0.45l23.49,0.57
		c0.58,0.01,0.7-0.21,0.35-0.68c-20.1-26.88-55.5-41.5-88.09-42.84c-32.72-1.34-57.77,17.28-60.42,50.95
		c-3.51,44.61,35.58,75.65,75.05,84.19c0.44,0.09,0.48,0,0.13-0.27c-8.93-7.01-16.67-15.15-23.21-24.44
		c-0.11-0.15-0.07-0.37,0.09-0.47c0.04-0.03,0.09-0.05,0.14-0.06c34.03-4.85,68.25-7.01,102.66-6.49
		c32.39,0.49,62.44,3.74,91.72,13.21c0.25,0.08,0.26,0.18,0.03,0.3c-26.3,13.85-43.18,35.16-60.37,57.98
		c-8.88,11.78-19.66,17.94-34.83,18.33c-37.01,0.96-71.82-6.72-104.43-23.04c-42.49-21.27-86.42-52.05-97.57-101.68
		c-8.04-35.8,7.93-72.2,39.85-90.4c21.54-12.29,47.21-16.53,71.73-14.98c37.31,2.36,69.75,15.92,97.3,40.69
		c0.24,0.21,0.34,0.16,0.29-0.16c-3.17-20.96,6.38-40.5,27.06-47.22c0.51-0.17,0.53-0.38,0.05-0.63
		c-17.15-8.93-37.13-13.62-56.02-16.3c-38.89-5.51-81.29-7.73-119.17-13.58c-34.15-5.28-77.26-24.26-79.41-64.81
		c-0.02-0.3-0.22-0.56-0.5-0.64c-30.79-9.25-60.71-27.59-84.76-49.44c-0.45-0.41-0.67-1.01-0.58-1.6
		c4.83-32.22,14.2-61.25,25.81-91.28c0.07-0.19-0.02-0.4-0.22-0.48c-0.04-0.01-0.08-0.02-0.11-0.02
		c-5.78-0.31-11.38,0.53-16.81,2.52c-41.97,15.35-53.01,58.69-40.67,98.02c0.08,0.26-0.06,0.55-0.33,0.64
		c-28.21,9.49-53.29,24.22-75.24,44.21"/>
	<path vector-effect="non-scaling-stroke" class="st2" d="M945.08,485.71l-0.29-0.71"/>
	<path vector-effect="non-scaling-stroke" class="st0" d="M944.79,485c13.81-35.31,32.64-67.68,56.48-97.11
		c0.19-0.24,0.21-0.57,0.04-0.83L991.54,372"/>
	<path vector-effect="non-scaling-stroke" class="st2" d="M991.54,372l0.04-0.71"/>
	<path vector-effect="non-scaling-stroke" class="st1" d="M991.54,372c-0.22-0.01-0.46,0.15-0.73,0.46
		c-27.39,31.67-46.16,65.13-62.34,103.59c-0.11,0.26,0,0.55,0.24,0.68l15.61,8.43c0.08,0.04,0.18,0.03,0.25-0.04
		c0.07-0.07,0.15-0.11,0.22-0.12"/>
	<path vector-effect="non-scaling-stroke" class="st1" d="M1215.01,306.99l8.24-21.22c0.13-0.34,0.08-0.72-0.13-1.01l-21.41-28.86
		c-0.24-0.33-0.44-0.31-0.59,0.07L1185,295.71c-0.07,0.17-0.25,0.26-0.42,0.21l-23.47-6.4c-0.26-0.08-0.41-0.34-0.34-0.6
		c0-0.01,0-0.01,0.01-0.02l9.18-26.78c0.11-0.31,0.05-0.65-0.14-0.91l-24.61-33.22c-0.09-0.12-0.26-0.14-0.37-0.05
		c-0.03,0.02-0.06,0.06-0.08,0.09c-12.45,25.78-21.12,52.77-26.01,80.98c-0.08,0.49,0.09,1,0.46,1.34
		c23.32,21.19,55.1,35.5,85.58,42.32c0.27,0.06,0.45,0.32,0.41,0.6c-8.08,49.54,46.67,60.35,81.95,63.35
		c43.24,3.67,86.2,7.24,129.16,16.4c20.89,4.45,40.58,11.25,59.07,20.41c15.81,7.82,26.3,20.04,31.48,36.67
		c0.11,0.37,0.29,0.41,0.53,0.11c10.39-12.77,23.93-19.12,40.63-19.05c0.43,0,0.53-0.18,0.31-0.55
		c-23.02-38.25-70.19-55.54-111.23-65.47c-42.17-10.2-85.23-16.69-128.19-22.63c-6.61-0.92-11.23-2.05-13.84-3.39
		c-10.77-5.56-13.63-17.93-11.78-29.42c0.05-0.3-0.07-0.61-0.31-0.81c-21.17-16.99-43.41-29.28-67.69-41.16
		C1215.02,307.6,1214.9,307.28,1215.01,306.99"/>
	<path vector-effect="non-scaling-stroke" class="st0" d="M1451.25,553.66c0.69,0.57,0.9,0.42,0.63-0.43
		c-2.29-7.42-2.64-15.21-1.05-23.38c2.84-14.62,16.93-19.01,30.02-15.48c0.23,0.06,0.48-0.08,0.54-0.31
		c0.01-0.02,0.01-0.04,0.01-0.06c2.19-17.33-16.62-26.2-30.68-18.77c-13.8,7.3-15.95,26.96-11.77,40.57
		C1441.08,542.73,1445.18,548.68,1451.25,553.66"/>
	<path vector-effect="non-scaling-stroke" class="st1" d="M881.06,701.73c24.54,75.74,106.98,90.21,173.27,67.71
		c0.27-0.09,0.42-0.38,0.35-0.65c-10.35-40.28-34.07-65.17-72.55-79.66c-3.9-1.46-9.03-2.81-12.55-3.37
		c-28.62-4.47-63.35-1.2-88.25,15.22C881.09,701.14,880.98,701.45,881.06,701.73"/>
	<path vector-effect="non-scaling-stroke" class="st1" d="M718.87,862.5c-23.16,20.84-27.42,59.78-1.73,80.71
		c16.65,13.56,42.23,12.74,59.17,1.83c29.28-18.85,30.64-57.04,5.56-79.62"/>
	<path vector-effect="non-scaling-stroke" class="st0" d="M781.87,865.42c-29.92-31.73-30.12-81.73-13.47-119.49
		c7.98-18.09,22.48-33.72,42.89-35.23c0.33-0.03,0.34-0.09,0.03-0.2c-15.96-5.31-31.9-6.93-47.81-4.88
		c-48.64,6.26-77.68,50.4-80.72,96.55c-0.06,0.9-0.22,0.92-0.49,0.06c-9.45-30.81-1.58-57.57,20.36-80.37
		c0.2-0.2,0.2-0.52-0.01-0.72c-0.01-0.01-0.03-0.03-0.04-0.04l-7.07-5.55c-0.27-0.21-0.61-0.32-0.95-0.29
		c-41.39,3.61-74.05,32.41-76.21,75.19c-1.83,36.22,26.19,62.04,59.47,69.52c3.16,0.71,6.39,1.05,9.69,1.02
		c0.33,0,0.64-0.16,0.84-0.43l6.79-9.44c0.18-0.26,0.53-0.33,0.8-0.16c7.31,4.55,14.94,8.39,22.9,11.54"/>
	<path vector-effect="non-scaling-stroke" class="st2" d="M781.87,865.42c-21.27,5.12-42.27,4.15-63-2.92"/>
	<path vector-effect="non-scaling-stroke" class="st0" d="M798.72,123.79l-33.24,438.88c-0.03,0.29,0.19,0.55,0.48,0.58
		c0.02,0,0.03,0,0.05,0h24.79c0.23,0,0.42-0.19,0.42-0.43c0-0.03,0-0.05-0.01-0.08c-3.45-17.25-2.46-37.61,3.19-54.58
		c1.82-5.47,6.06-13.33,7.46-18.39c2.59-9.35,3.09-17.77,1.48-25.27c-1.08-5-3.96-12.69-4.92-18.78
		c-2.28-14.41-1.59-28.68,2.08-42.79c2.85-10.97,9.33-20.81,10.79-31.79c1.11-8.39,0.64-14.94-2.01-23.52
		c-7.5-24.37-5.24-49.51,5.25-72.59c4.03-8.86,5.43-16.45,5.01-25.75c-0.37-8.57-4.33-18.85-5.69-27.02
		c-4.11-24.62,3.66-45.9,12.56-68.84c0.12-0.3,0.05-0.64-0.16-0.88l-26.78-29.01C799.02,123.04,798.77,123.13,798.72,123.79"/>
	<path vector-effect="non-scaling-stroke" class="st0" d="M1106.67,404.27c0.11-0.15,0.31-0.21,0.48-0.14
		c13.43,4.94,26.32,3.81,38.67-3.38c0.33-0.19,0.31-0.34-0.05-0.45c-22.68-6.7-43.42-18.23-59.42-35.83
		c-0.22-0.24-0.54-0.34-0.86-0.27c-19.13,4.23-35.36,13.51-48.68,27.82c-0.46,0.49-0.38,0.61,0.24,0.35
		c14.27-6.03,29.13-8.08,44.57-6.14c0.43,0.05,0.51,0.25,0.23,0.59c-18.36,22.04-18.96,61.37,13.17,72.02
		c9.27,3.07,18.72,3.46,28.35,1.17c0.33-0.07,0.33-0.16,0.01-0.27C1099.17,451.64,1091.77,424.38,1106.67,404.27"/>
	<path vector-effect="non-scaling-stroke" class="st0" d="M1017.52,584.56c21.82,23.08,66.88,34.54,96.88,24.72
		c0.31-0.1,0.31-0.17-0.02-0.22c-18.91-2.65-36.38-8.84-52.41-18.59c-47.26-28.74-57.95-79.48-44.15-130.23
		c0.05-0.17,0.04-0.29-0.03-0.38c-0.07-0.09-0.19-0.11-0.28-0.04c-0.02,0.01-0.04,0.03-0.05,0.05
		c-33.76,52.83-30.93,124.16-11.5,180.92c1.79,5.22,3.89,10.3,6.31,15.24c0.19,0.38,0.26,0.36,0.22-0.06
		c-2.45-24.86-2.12-49.67,0.99-74.44c0.02-0.16,0.17-0.28,0.33-0.26c0.05,0.01,0.1,0.03,0.14,0.06
		C1015.01,582.09,1016.2,583.17,1017.52,584.56"/>
	<path vector-effect="non-scaling-stroke" class="st1" d="M1222.25,839.01c-4.67-21.54-18.36-49.25-38.93-60.69
		c-0.29-0.17-0.36-0.1-0.19,0.19c32.73,57.12,31.98,119.69,10.37,180.46c-0.11,0.32-0.04,0.37,0.23,0.16
		c5.01-4.08,9.4-9.1,13.19-15.06C1226.55,913.17,1229.84,874.12,1222.25,839.01"/>
	<path vector-effect="non-scaling-stroke" class="st0" d="M1065.03,1437.18c13.19,20.54,36.28,36.26,58.78,44.15
		c2.66,0.93,5.43,1.52,8.31,1.77c0.39,0.03,0.46-0.1,0.21-0.4l-44.94-54.16c-0.2-0.25-0.28-0.58-0.22-0.9
		c6.31-29.95,11.9-61.63,16.77-95.06c2.09-14.34,3.59-28.04,4.52-41.09c0.61-8.44,0.62-15.09,0.04-19.95
		c-4-33.74-29.71-53.32-62.17-56.52c-0.38-0.04-0.67-0.03-0.86,0.04c-0.46,0.16-0.4,0.33,0.19,0.5
		c35.45,10.28,43.22,43.67,40.84,76.19c-3.55,48.59-11.78,96.83-21.64,144.51C1064.8,1436.57,1064.86,1436.9,1065.03,1437.18"/>
	<path vector-effect="non-scaling-stroke" class="st0" d="M1231.45,1624c13.51-2.81,24.35-1.86,37.2-1.63
		c0.36,0.01,0.44-0.14,0.23-0.43c-19.59-27.59-40.81-53.85-63.66-78.8c-0.2-0.22-0.5-0.32-0.79-0.27l-17.91,2.95
		c-0.25,0.04-0.41,0.27-0.38,0.51c0.01,0.05,0.03,0.11,0.06,0.16l44.48,77.17C1230.84,1623.93,1231.15,1624.06,1231.45,1624"/>
	<path vector-effect="non-scaling-stroke" class="st1" d="M1600.36,961.31l-100.86-31.76c-0.32-0.1-0.65,0.08-0.75,0.4
		c0,0.01-0.01,0.03-0.01,0.04l-15.09,62.97c-0.08,0.34-0.03,0.7,0.15,1l18.99,31.8c0.12,0.2,0.1,0.46-0.06,0.63l-37.29,39.74
		c-0.22,0.24-0.38,0.54-0.46,0.87c-13.26,58.82-13.68,118.63,2.01,177.07c0.05,0.19,0.25,0.3,0.45,0.25
		c0.04-0.01,0.08-0.03,0.11-0.06c47.31-36.53,79.2-88.81,95.21-145.37c0.1-0.34,0.05-0.71-0.12-1.02l-17.79-31.7
		c-0.12-0.2-0.08-0.45,0.09-0.61l40.06-38.53c0.23-0.22,0.39-0.5,0.46-0.81l15.18-64.41C1600.7,961.6,1600.57,961.38,1600.36,961.31
		"/>
	<path vector-effect="non-scaling-stroke" class="st0" d="M583.68,1441.44c-16.82,1.16-33.65,2.35-50.49,3.57
		c-1.96,0.15-3.77,0.63-5.44,1.45c-35.54,17.44-62.66,50.36-54.23,92.33c5.21,25.9,24.35,44.4,49.56,51.23
		c26.36,7.13,51.48,4.02,75.37-9.34c27.54-15.4,48.07-37.35,61.58-65.86c0.13-0.27,0.41-0.42,0.7-0.37
		c13.27,1.99,24.45-1.52,33.53-10.53c21.55-21.39,41.17-45.85,58.85-73.4c7.68-11.98,13.89-24.32,18.64-37.02
		c0.1-0.28,0.38-0.45,0.67-0.41c4.64,0.58,9.28,1.11,13.91,1.59c33.43,3.45,65.53-1.44,96.3-14.67c0.55-0.23,0.53-0.4-0.06-0.5
		c-52.93-8.98-95.92-39.31-124.7-84.43c-0.17-0.26-0.48-0.39-0.78-0.32c-16.71,3.94-33.64,6.53-50.77,7.76
		c-0.31,0.03-0.57,0.21-0.69,0.49c-25.52,61.47-74.94,99.7-137.57,119.05c-0.31,0.1-0.48,0.43-0.39,0.74
		c0.03,0.08,0.07,0.16,0.13,0.22l16.04,18.01C584.07,1441.28,584.02,1441.42,583.68,1441.44"/>
	<path vector-effect="non-scaling-stroke" class="st1" d="M867.52,1196.06c2.87,2.63,5.06,4.5,6.59,5.61
		c0.21,0.15,0.49,0.1,0.64-0.11c0.01-0.02,0.03-0.04,0.04-0.07c3.85-8.34,8.15-16.44,12.9-24.31c0.15-0.25,0.09-0.58-0.14-0.76
		c-25.81-20.32-43.17-45.69-59.16-73.96c-0.29-0.53-0.46-0.49-0.5,0.11C825.68,1139.08,840.81,1171.61,867.52,1196.06"/>
	<path vector-effect="non-scaling-stroke" class="st1" d="M801.05,1193.76c-2,37.14,23.91,80.48,55.77,98.99
		c0.32,0.19,0.47,0.1,0.44-0.27c-0.75-10.65-0.61-21.29,0.41-31.92c0.03-0.33-0.1-0.66-0.36-0.87
		c-16.02-13.26-29.92-27.7-40.4-44.52c-4.8-7.71-9.64-16.47-14.52-26.3c-0.15-0.3-0.28-0.29-0.39,0.03
		C801.46,1190.45,801.15,1192.07,801.05,1193.76"/>
	<path vector-effect="non-scaling-stroke" class="st1" d="M738.44,934.54c19.38,6.91,38.43-7.13,41.49-26.52
		c2.15-13.68-5.9-30.76-20.99-34.26c-0.33-0.07-0.44,0.05-0.33,0.37c7.82,22.81,2.07,47.88-20.23,59.53
		C737.74,934,737.76,934.29,738.44,934.54"/>
	<path vector-effect="non-scaling-stroke" class="st1" d="M1574.28,973.16l-36.47-9.93c-0.5-0.14-0.63,0.02-0.38,0.47l27.4,50.09
		c0.23,0.43,0.41,0.4,0.52-0.07l9.34-39.87C1574.76,973.54,1574.58,973.24,1574.28,973.16"/>
	<path vector-effect="non-scaling-stroke" class="st0" d="M746.48,1393.62c-10.16-1.71-18.05,1.16-23.66,8.63
		c-20.78,27.63-39.95,55.9-66.15,78.89c-0.21,0.18-0.25,0.5-0.08,0.72c13.51,17.85,32.53-5.37,40.98-15.13
		c18.69-21.59,37.05-46.5,49.28-72.4c0.12-0.25,0.01-0.55-0.23-0.67C746.58,1393.64,746.53,1393.63,746.48,1393.62"/>
	<path vector-effect="non-scaling-stroke" class="st0" d="M605.51,1539.16c-29.92,11.95-78.99,21.09-107.5,0.81
		c-0.47-0.33-0.6-0.23-0.4,0.3c11.46,30.28,50.35,36,77.51,25.65c17.95-6.83,33.07-17.92,45.36-33.26c0.21-0.26,0.16-0.32-0.14-0.18
		C612.07,1536.29,607.13,1538.52,605.51,1539.16"/>
</g>
<path class="st3" d="M815.38,666.05l-23.8,0.66c2.03-26.11,3.63-52.29,4.8-78.54c0.01-0.33-0.24-0.61-0.57-0.62
	c-0.01,0-0.01,0-0.02,0l-34.41-0.36c-0.3-0.01-0.55,0.22-0.57,0.52l-3.94,53.54c-7.85,13.42-14.34,28.81-32.59,31.44
	c-3.78,0.55-8.46,0.84-14.03,0.87c2.47-28.01,4.96-55.96,7.47-83.87c0.63-7.06,6.32-14.88,8.71-21.52
	c4.82-13.43,7.1-27.73,6.84-42.92c-0.21-12.32-5.29-21.83-6.37-33.48c-1.23-13.32,0.48-25.4,5.59-37.92
	c2.35-5.76,5.13-11.63,6.47-17.4c2.39-10.34,2.84-20.82,1.36-31.45c-0.88-6.31-4.54-15.06-5.41-22.13
	c-1.24-10.04-0.63-19.96,1.83-29.75c2.12-8.45,7.04-16.61,9.41-25.37c2.99-11.05,3.64-22.3,1.93-33.75
	c-0.92-6.2-4.54-15.03-5.43-22.15c-1.37-10.95-0.62-21.38,2.27-31.28c2.55-8.75,7.9-19.08,9.88-27.72
	c4.54-19.81,1.14-42.79-4.4-62.11c-0.09-0.32-0.02-0.66,0.19-0.92l47.67-57.44c0.18-0.22,0.5-0.26,0.72-0.08
	c0.02,0.02,0.04,0.03,0.05,0.05l52.99,56.15c0.17,0.17,0.21,0.44,0.11,0.66c-9.59,21.54-20.68,50.32-14.28,73.34
	c2.33,8.37,3.66,13.53,4,15.5c2.37,13.67,1.36,27.07-3.04,40.19c-1.52,4.54-5.26,11.58-6.92,16.94c-3.2,10.37-4.24,20.94-3.11,31.73
	c0.91,8.61,4.78,17.05,5.9,25.89c1.47,11.63,0.48,22.99-2.98,34.06c-0.35,1.09-1.94,4.94-4.77,11.55
	c-5.78,13.49-7.63,27.71-5.56,42.64c0.96,6.97,4.81,16.19,5.64,23.8c1.49,13.55-0.22,25.85-5.39,38.71
	c-3.59,8.92-6.97,15.87-8.21,26.66c-1.26,11-1.25,21.97,0.04,32.9c0.76,6.51,2.65,13.88,4.29,20.77c0.58,2.45,0.82,4.92,0.72,7.43
	C817.5,616.14,816.47,641.06,815.38,666.05z M798.72,123.79l-33.24,438.88c-0.03,0.29,0.19,0.55,0.48,0.58c0.02,0,0.03,0,0.05,0
	h24.79c0.23,0,0.42-0.19,0.42-0.43c0-0.03,0-0.05-0.01-0.08c-3.45-17.25-2.46-37.61,3.19-54.58c1.82-5.47,6.06-13.33,7.46-18.39
	c2.59-9.35,3.09-17.77,1.48-25.27c-1.08-5-3.96-12.69-4.92-18.78c-2.28-14.41-1.59-28.68,2.08-42.79
	c2.85-10.97,9.33-20.81,10.79-31.79c1.11-8.39,0.64-14.94-2.01-23.52c-7.5-24.37-5.24-49.51,5.25-72.59
	c4.03-8.86,5.43-16.45,5.01-25.75c-0.37-8.57-4.33-18.85-5.69-27.02c-4.11-24.62,3.66-45.9,12.56-68.84
	c0.12-0.3,0.05-0.64-0.16-0.88l-26.78-29.01C799.02,123.04,798.77,123.13,798.72,123.79z"/>
<path class="st4" d="M798.72,123.79c0.05-0.66,0.3-0.75,0.75-0.26l26.78,29.01c0.21,0.24,0.28,0.58,0.16,0.88
	c-8.9,22.94-16.67,44.22-12.56,68.84c1.36,8.17,5.32,18.45,5.69,27.02c0.42,9.3-0.98,16.89-5.01,25.75
	c-10.49,23.08-12.75,48.22-5.25,72.59c2.65,8.58,3.12,15.13,2.01,23.52c-1.46,10.98-7.94,20.82-10.79,31.79
	c-3.67,14.11-4.36,28.38-2.08,42.79c0.96,6.09,3.84,13.78,4.92,18.78c1.61,7.5,1.11,15.92-1.48,25.27
	c-1.4,5.06-5.64,12.92-7.46,18.39c-5.65,16.97-6.64,37.33-3.19,54.58c0.04,0.23-0.1,0.46-0.33,0.5c-0.03,0.01-0.05,0.01-0.08,0.01
	h-24.79c-0.29,0-0.53-0.23-0.53-0.53c0-0.02,0-0.03,0-0.05L798.72,123.79z"/>
<path class="st3" d="M945.08,485.71l-0.29-0.71c13.81-35.31,32.64-67.68,56.48-97.11c0.19-0.24,0.21-0.57,0.04-0.83L991.54,372
	l0.04-0.71c21.95-19.99,47.03-34.72,75.24-44.21c0.27-0.09,0.41-0.38,0.33-0.64c-12.34-39.33-1.3-82.67,40.67-98.02
	c5.43-1.99,11.03-2.83,16.81-2.52c0.2,0.01,0.36,0.18,0.35,0.39c0,0.04-0.01,0.08-0.02,0.11c-11.61,30.03-20.98,59.06-25.81,91.28
	c-0.09,0.59,0.13,1.19,0.58,1.6c24.05,21.85,53.97,40.19,84.76,49.44c0.28,0.08,0.48,0.34,0.5,0.64
	c2.15,40.55,45.26,59.53,79.41,64.81c37.88,5.85,80.28,8.07,119.17,13.58c18.89,2.68,38.87,7.37,56.02,16.3
	c0.48,0.25,0.46,0.46-0.05,0.63c-20.68,6.72-30.23,26.26-27.06,47.22c0.05,0.32-0.05,0.37-0.29,0.16
	c-27.55-24.77-59.99-38.33-97.3-40.69c-24.52-1.55-50.19,2.69-71.73,14.98c-31.92,18.2-47.89,54.6-39.85,90.4
	c11.15,49.63,55.08,80.41,97.57,101.68c32.61,16.32,67.42,24,104.43,23.04c15.17-0.39,25.95-6.55,34.83-18.33
	c17.19-22.82,34.07-44.13,60.37-57.98c0.23-0.12,0.22-0.22-0.03-0.3c-29.28-9.47-59.33-12.72-91.72-13.21
	c-34.41-0.52-68.63,1.64-102.66,6.49c-0.19,0.03-0.31,0.2-0.29,0.39c0.01,0.05,0.03,0.1,0.06,0.14
	c6.54,9.29,14.28,17.43,23.21,24.44c0.35,0.27,0.31,0.36-0.13,0.27c-39.47-8.54-78.56-39.58-75.05-84.19
	c2.65-33.67,27.7-52.29,60.42-50.95c32.59,1.34,67.99,15.96,88.09,42.84c0.35,0.47,0.23,0.69-0.35,0.68l-23.49-0.57
	c-0.29-0.01-0.56-0.18-0.68-0.45c-10.74-23.96-41.49-18.26-45.48,6.53c-0.05,0.32-0.15,0.33-0.28,0.03
	c-2.89-6.67-7.3-11.46-13.21-14.37c-10.67-5.25-23.16-2.81-28.78,8.16c-5.58,10.89-3.26,27.64,0.83,38.83
	c0.09,0.27,0.38,0.42,0.66,0.35c32.18-8.36,66.76-11.4,99.95-10.26c39.64,1.36,80.93,6.24,119.27,16.53
	c0.32,0.09,0.43-0.03,0.34-0.35c-7.92-27.37-6.38-62.29,15.63-83.21c7.62-7.24,18.39-13.2,29.3-12.08c0.78,0.08,0.94,0.44,0.48,1.07
	c-24.22,33.08-24.87,69.94-12.49,107.84c4.36,13.35,0.53,23.63-11.48,30.84c-22.8,13.68-41.86,31.4-57.17,53.16
	c-6.73,9.56-13.37,21.25-22.51,28.66c-25.9,21-60.07,17.86-90.77,12.84c-28.07-4.59-55.54-12.35-82.41-23.28
	c-42.15-17.15-80.96-47.59-105.44-85.81c-0.01-0.01-0.02-0.02-0.04-0.02l-0.25,0.06c-0.04,0.01-0.07,0.08-0.05,0.16c0,0,0,0,0,0
	c6.61,35.44,17.19,69.65,31.74,102.62c0.14,0.33,0.04,0.44-0.3,0.34c-28.95-8.37-57.33-16.04-87.26-20.19
	c-0.3-0.04-0.57-0.24-0.69-0.53c-7.62-17.99-14.01-36.38-19.17-55.19c-0.03-0.11-0.09-0.18-0.18-0.21c-0.15-0.03-0.29,0.06-0.32,0.2
	c0,0,0,0.01,0,0.01c-2.96,17.69-2.2,34.78-0.03,53.23c0.03,0.24-0.15,0.46-0.39,0.49c-0.02,0-0.04,0-0.06,0
	c-18.01-1-36.01-0.89-54,0.33c-0.32,0.03-0.64-0.1-0.85-0.34c-17.27-19.47-42.7-31.86-67.29-39.12c-0.3-0.09-0.53-0.32-0.63-0.61
	c-18.39-56.17-22.58-113.46-12.57-171.89c0.05-0.31-0.09-0.61-0.36-0.76L945.08,485.71z M1106.67,404.27
	c0.11-0.15,0.31-0.21,0.48-0.14c13.43,4.94,26.32,3.81,38.67-3.38c0.33-0.19,0.31-0.34-0.05-0.45
	c-22.68-6.7-43.42-18.23-59.42-35.83c-0.22-0.24-0.54-0.34-0.86-0.27c-19.13,4.23-35.36,13.51-48.68,27.82
	c-0.46,0.49-0.38,0.61,0.24,0.35c14.27-6.03,29.13-8.08,44.57-6.14c0.43,0.05,0.51,0.25,0.23,0.59
	c-18.36,22.04-18.96,61.37,13.17,72.02c9.27,3.07,18.72,3.46,28.35,1.17c0.33-0.07,0.33-0.16,0.01-0.27
	C1099.17,451.64,1091.77,424.38,1106.67,404.27z M1017.52,584.56c21.82,23.08,66.88,34.54,96.88,24.72c0.31-0.1,0.31-0.17-0.02-0.22
	c-18.91-2.65-36.38-8.84-52.41-18.59c-47.26-28.74-57.95-79.48-44.15-130.23c0.05-0.17,0.04-0.29-0.03-0.38
	c-0.07-0.09-0.19-0.11-0.28-0.04c-0.02,0.01-0.04,0.03-0.05,0.05c-33.76,52.83-30.93,124.16-11.5,180.92
	c1.79,5.22,3.89,10.3,6.31,15.24c0.19,0.38,0.26,0.36,0.22-0.06c-2.45-24.86-2.12-49.67,0.99-74.44c0.02-0.16,0.17-0.28,0.33-0.26
	c0.05,0.01,0.1,0.03,0.14,0.06C1015.01,582.09,1016.2,583.17,1017.52,584.56z"/>
<path class="st5" d="M1215.29,307.73c24.28,11.88,46.52,24.17,67.69,41.16c0.24,0.2,0.36,0.51,0.31,0.81
	c-1.85,11.49,1.01,23.86,11.78,29.42c2.61,1.34,7.23,2.47,13.84,3.39c42.96,5.94,86.02,12.43,128.19,22.63
	c41.04,9.93,88.21,27.22,111.23,65.47c0.22,0.37,0.12,0.55-0.31,0.55c-16.7-0.07-30.24,6.28-40.63,19.05
	c-0.24,0.3-0.42,0.26-0.53-0.11c-5.18-16.63-15.67-28.85-31.48-36.67c-18.49-9.16-38.18-15.96-59.07-20.41
	c-42.96-9.16-85.92-12.73-129.16-16.4c-35.28-3-90.03-13.81-81.95-63.35c0.04-0.28-0.14-0.54-0.41-0.6
	c-30.48-6.82-62.26-21.13-85.58-42.32c-0.37-0.34-0.54-0.85-0.46-1.34c4.89-28.21,13.56-55.2,26.01-80.98
	c0.06-0.13,0.22-0.18,0.35-0.12c0.04,0.02,0.07,0.05,0.1,0.08l24.61,33.22c0.19,0.26,0.25,0.6,0.14,0.91l-9.18,26.78
	c-0.09,0.25,0.05,0.53,0.31,0.61c0.01,0,0.02,0,0.02,0.01l23.47,6.4c0.17,0.05,0.35-0.04,0.42-0.21l16.12-39.74
	c0.15-0.38,0.35-0.4,0.59-0.07l21.41,28.86c0.21,0.29,0.26,0.67,0.13,1.01l-8.24,21.22C1214.9,307.28,1215.02,307.6,1215.29,307.73z
	"/>
<path class="st5" d="M991.58,371.29l-0.04,0.71c-0.22-0.01-0.46,0.15-0.73,0.46c-27.39,31.67-46.16,65.13-62.34,103.59
	c-0.11,0.26,0,0.55,0.24,0.68l15.61,8.43c0.08,0.04,0.18,0.03,0.25-0.04c0.07-0.07,0.15-0.11,0.22-0.12l0.29,0.71
	c-0.28,0.13-0.58,0.48-0.64,0.8c-10.95,58.87-6.68,121.11,7.85,178.87c0.07,0.27-0.1,0.55-0.37,0.62c-0.04,0.01-0.09,0.02-0.14,0.02
	c-10.21-0.17-20.4,0.29-30.55,1.4c-0.32,0.03-0.62-0.17-0.71-0.49c-5.47-19.93-9.68-40.14-12.61-60.61
	c-0.05-0.35-0.28-0.64-0.61-0.77l-17.78-7.01c-0.32-0.13-0.55-0.43-0.57-0.77c-3.51-40.53,0.9-80.96,11.79-120.55
	c0.07-0.26-0.05-0.54-0.3-0.67l-14.65-7.32c-0.25-0.12-0.37-0.42-0.26-0.68c15.95-38.68,36.95-74.38,62.98-107.11
	c0.22-0.29,0.26-0.68,0.08-0.99l-5.64-9.92c-0.15-0.26-0.09-0.6,0.15-0.8c29.42-24.1,63.74-42.88,100.39-53.3
	c0.23-0.07,0.48,0.06,0.55,0.29c0.01,0.04,0.02,0.09,0.02,0.13c0.03,5.99,0.49,11.95,1.4,17.88c0.05,0.35-0.14,0.68-0.47,0.81
	c-23.47,9.45-44.55,22.71-63.23,39.77c-0.22,0.2-0.27,0.53-0.12,0.79C984.62,361.27,987.94,366.34,991.58,371.29z"/>
<path class="st4" d="M1106.67,404.27c-14.9,20.11-7.5,47.37,16.71,55.47c0.32,0.11,0.32,0.2-0.01,0.27
	c-9.63,2.29-19.08,1.9-28.35-1.17c-32.13-10.65-31.53-49.98-13.17-72.02c0.28-0.34,0.2-0.54-0.23-0.59
	c-15.44-1.94-30.3,0.11-44.57,6.14c-0.62,0.26-0.7,0.14-0.24-0.35c13.32-14.31,29.55-23.59,48.68-27.82
	c0.32-0.07,0.64,0.03,0.86,0.27c16,17.6,36.74,29.13,59.42,35.83c0.36,0.11,0.38,0.26,0.05,0.45c-12.35,7.19-25.24,8.32-38.67,3.38
	C1106.98,404.06,1106.79,404.12,1106.67,404.27z"/>
<path class="st4" d="M991.54,372l9.77,15.06c0.17,0.26,0.15,0.59-0.04,0.83c-23.84,29.43-42.67,61.8-56.48,97.11
	c-0.07,0.01-0.15,0.05-0.22,0.12c-0.07,0.07-0.17,0.08-0.25,0.04l-15.61-8.43c-0.24-0.13-0.35-0.42-0.24-0.68
	c16.18-38.46,34.95-71.92,62.34-103.59C991.08,372.15,991.32,371.99,991.54,372z"/>
<path class="st4" d="M1017.52,584.56c-1.32-1.39-2.51-2.47-3.57-3.23c-0.13-0.1-0.31-0.07-0.41,0.06c-0.03,0.04-0.05,0.09-0.06,0.14
	c-3.11,24.77-3.44,49.58-0.99,74.44c0.04,0.42-0.03,0.44-0.22,0.06c-2.42-4.94-4.52-10.02-6.31-15.24
	c-19.43-56.76-22.26-128.09,11.5-180.92c0.06-0.09,0.18-0.12,0.28-0.06c0.02,0.01,0.04,0.03,0.05,0.05
	c0.07,0.09,0.08,0.21,0.03,0.38c-13.8,50.75-3.11,101.49,44.15,130.23c16.03,9.75,33.5,15.94,52.41,18.59
	c0.33,0.05,0.33,0.12,0.02,0.22C1084.4,619.1,1039.34,607.64,1017.52,584.56z"/>
<path class="st3" d="M1451.25,553.66c-6.07-4.98-10.17-10.93-12.3-17.86c-4.18-13.61-2.03-33.27,11.77-40.57
	c14.06-7.43,32.87,1.44,30.68,18.77c-0.03,0.24-0.25,0.41-0.49,0.38c-0.02,0-0.04-0.01-0.06-0.01
	c-13.09-3.53-27.18,0.86-30.02,15.48c-1.59,8.17-1.24,15.96,1.05,23.38C1452.15,554.08,1451.94,554.23,1451.25,553.66z"/>
<path class="st4" d="M791.58,666.71c-17.28,0.28-27.89-10.83-34.71-25.46l3.94-53.54c0.02-0.3,0.27-0.53,0.57-0.52l34.41,0.36
	c0.33,0,0.59,0.27,0.59,0.6c0,0.01,0,0.01,0,0.02C795.21,614.42,793.61,640.6,791.58,666.71z"/>
<path class="st5" d="M756.87,641.25c6.82,14.63,17.43,25.74,34.71,25.46l23.8-0.66l42.2-1.54c0.34-0.01,0.67,0.15,0.86,0.44
	l11.85,17.22c0.17,0.26,0.18,0.59,0.02,0.85c-10.11,16.67-20.16,33.35-30.15,50.05c-0.13,0.21-0.07,0.37,0.17,0.47l-0.75,0.25
	c-5.91-10.83-14.57-18.48-26-22.93c-0.19-0.07-0.29-0.29-0.21-0.48c0.01-0.02,0.02-0.04,0.03-0.07l14.35-22.27
	c0.23-0.36,0.13-0.52-0.3-0.49c-24.98,2.03-50.61,1.25-72.42-12.51c-0.14-0.08-0.31-0.05-0.4,0.08c-0.03,0.04-0.04,0.09-0.04,0.14
	l-0.89,14.46c-0.02,0.29-0.23,0.53-0.51,0.58c-13.88,2.9-26.37,8.74-37.48,17.53c-0.26,0.2-0.63,0.2-0.88-0.01l-8.8-7.44
	c-0.27-0.23-0.6-0.36-0.96-0.37c-12.31-0.47-24.39,1-36.23,4.41c-0.25,0.07-0.51-0.06-0.6-0.31l-9.44-26.61
	c-0.07-0.2,0.03-0.43,0.24-0.5c0.04-0.01,0.07-0.02,0.11-0.02c16.64-0.93,33.28-1.94,49.93-3.05c0.45-0.03,0.84-0.15,1.17-0.37
	c5.57-0.03,10.25-0.32,14.03-0.87C742.53,670.06,749.02,654.67,756.87,641.25z"/>
<path class="st5" d="M1054.33,769.44c-66.29,22.5-148.73,8.03-173.27-67.71c-0.09-0.28,0.02-0.59,0.27-0.75
	c24.9-16.42,59.63-19.69,88.25-15.22c3.52,0.56,8.65,1.91,12.55,3.37c38.48,14.49,62.2,39.38,72.55,79.66
	C1054.76,769.07,1054.6,769.35,1054.33,769.44z"/>
<path class="st3" d="M781.87,865.42c-21.27,5.12-42.27,4.15-63-2.92c-7.96-3.15-15.59-6.99-22.9-11.54c-0.27-0.17-0.62-0.1-0.8,0.16
	l-6.79,9.44c-0.2,0.27-0.51,0.43-0.84,0.43c-3.3,0.03-6.53-0.31-9.69-1.02c-33.28-7.48-61.3-33.3-59.47-69.52
	c2.16-42.78,34.82-71.58,76.21-75.19c0.34-0.03,0.68,0.08,0.95,0.29l7.07,5.55c0.22,0.17,0.26,0.49,0.09,0.72
	c-0.01,0.02-0.03,0.03-0.04,0.04c-21.94,22.8-29.81,49.56-20.36,80.37c0.27,0.86,0.43,0.84,0.49-0.06
	c3.04-46.15,32.08-90.29,80.72-96.55c15.91-2.05,31.85-0.43,47.81,4.88c0.31,0.11,0.3,0.17-0.03,0.2
	c-20.41,1.51-34.91,17.14-42.89,35.23C751.75,783.69,751.95,833.69,781.87,865.42z"/>
<path class="st5" d="M1351.21,820.69c-20.55-9.05-42.34-17.77-65.39-26.16c-0.33-0.12-0.7,0.03-0.85,0.36
	c-0.05,0.11,0.06,0.23,0.32,0.36c-0.1-0.05-0.2-0.04-0.31,0.02c-0.17,0.09-0.26,0.3-0.2,0.49c16.64,51.99,14.96,109.6-8.84,159.07
	c-9.84,20.48-24.5,39.9-45.31,50.58c-25.52,13.09-54.83,12.22-80.37-0.87c-33-16.91-58.1-48.98-72.69-82.77
	c-14.85-34.41-22.39-70.85-24.57-107.78c-0.02-0.31-0.16-0.41-0.42-0.53c0.25-0.45,0.36-0.94,0.35-1.47
	c-0.27-7.43-0.62-14.81-1.04-22.15c7.95-2.73,15.61-6.21,22.98-10.42c0.33-0.19,0.49-0.57,0.41-0.94
	c-3.96-17.91-9.83-35.16-17.61-51.77c-0.08-0.18,0-0.39,0.18-0.48c0.04-0.02,0.08-0.03,0.12-0.03
	c69.14-5.4,141.73,8.72,202.17,43.31c0.45,0.26,0.55,0.16,0.29-0.29c-7.46-12.94-19.31-22.12-31.76-29.95
	c-0.7-0.45-0.64-0.71,0.19-0.8C1284.83,732.37,1337.26,765,1351.21,820.69z M1222.25,839.01c-4.67-21.54-18.36-49.25-38.93-60.69
	c-0.29-0.17-0.36-0.1-0.19,0.19c32.73,57.12,31.98,119.69,10.37,180.46c-0.11,0.32-0.04,0.37,0.23,0.16
	c5.01-4.08,9.4-9.1,13.19-15.06C1226.55,913.17,1229.84,874.12,1222.25,839.01z"/>
<path class="st3" d="M1051.89,789.84c0.42,7.34,0.77,14.72,1.04,22.15c0.01,0.53-0.1,1.02-0.35,1.47
	c-6.13,2.45-12.36,4.51-18.7,6.17c-0.28,0.08-0.47,0.33-0.46,0.62c1.66,38.9,9.89,77.78,26.25,113.17
	c22.58,48.84,65.28,89.28,119.15,98.82c0.33,0.06,0.36,0.19,0.09,0.38c-5.21,3.76-8.97,6.41-11.28,7.94
	c-21.07,14.02-39.51,30.9-55.3,50.65c-20.4,25.41-34.91,55.47-44.5,86.5c-21.16-3.08-49.26,1.11-65.06,16.7
	c-0.11,0.11-0.12,0.29-0.01,0.4c0,0,0,0,0.01,0.01l0.19,0.18c0.05,0.05,0.12,0.07,0.2,0.06c44.77-10.13,100.59,1.25,121.22,47.29
	c9.85,22,7.93,51.12,5.1,74.39c-4.28,35.17-11.68,69.97-18.18,104.8c-0.06,0.34,0.04,0.69,0.27,0.94
	c27.83,30.72,54.89,64.78,75.93,99.36c0.16,0.27,0.48,0.42,0.79,0.37l23.71-3.53c0.33-0.04,0.66,0.06,0.89,0.29
	c31.11,30.45,58.55,65.58,82.56,101.44c10.91,16.29,20.19,31.07,9.93,50.69c-11.77,22.51-36.71,36.36-61.07,40.19
	c-12.94,2.03-29.51,1.36-43.91,1.45c-3.45,0.02-5.87-0.74-5.94-4.55c-0.06-3.67-0.13-7.33-0.22-11c-0.01-0.19-0.17-0.33-0.35-0.33
	c-0.04,0-0.08,0.01-0.12,0.03c-5.98,2.65-15.55,7.34-28.72,14.09c-1.41,0.72-4.69,1.49-6.77,1.54c-8.17,0.2-16.33,0.14-24.49-0.17
	c-0.32-0.01-0.63-0.14-0.85-0.37c-2.88-2.93-0.98-5.25,1.84-7.06c21.29-13.64,43.87-24.68,67.73-33.12
	c8.84-3.13,53.27-16.28,58.64-6.87c5.1,8.94-24.76,26.29-30.9,29.6c-0.29,0.15-0.27,0.23,0.06,0.23
	c18.23-0.29,44.38-9.34,51.88-27.94c9.05-22.49-23.68-23.18-35.87-21.88c-14.7,1.57-29.08,4.65-43.14,9.22
	c-35.53,11.55-68.7,27.85-99.53,48.88c-0.14,0.1-0.33,0.06-0.43-0.08c-0.03-0.04-0.04-0.08-0.05-0.13
	c-6.55-42.23-15.8-85.97-32.81-125.33c-0.12-0.27-0.03-0.58,0.21-0.75c20.03-13.61,40.95-23.57,62.83-33.8
	c0.31-0.14,0.29-0.21-0.04-0.21c-28.1,0.17-59.28,11.43-83.77,25.21c-0.17,0.1-0.39,0.04-0.49-0.14c-0.02-0.03-0.03-0.07-0.04-0.11
	c-7.43-42.23-32.37-75.49-62.47-104.58c-0.22-0.22-0.31-0.53-0.23-0.83c9.56-37.36,17.12-75.63,20.58-114.03
	c2.28-25.39,2.35-52.93-5.47-77.47c-0.11-0.34-0.26-0.35-0.43-0.04c-5.69,10.14-7.27,21.86-8.27,33.27
	c-0.93,10.65-1.84,21.31-2.73,31.98c-10.63,5.31-21.78,9.07-33.46,11.29c-10.15,1.46-20.5,1.59-31.03,0.39
	c-0.73-0.09-1.36-0.56-1.65-1.24c-10.07-23.62-9.67-53.06-4.66-77.81c9.14-45.1,31.87-82.25,68.19-111.44
	c0.17-0.14,0.2-0.39,0.07-0.56c-0.01-0.02-0.03-0.03-0.04-0.05l-39.12-35.79l12.46-11.29l15.36,13.42c0.23,0.2,0.57,0.2,0.78-0.01
	l52.15-47.35c0.1-0.09,0.11-0.25,0.02-0.35c-0.01-0.01-0.02-0.02-0.03-0.03l-45.49-34.64l13.85-13.39l18.39,13.35
	c0.14,0.11,0.34,0.1,0.47-0.03l54.99-53.56c0.09-0.09,0.1-0.23,0.01-0.33c-0.02-0.02-0.04-0.03-0.06-0.04
	c-30.37-16.87-53.44-38.85-76.88-64.05c-16.53-17.76-38.16-37.53-60.48-47.49c-13.97-6.73-28.45-12.15-43.44-16.26
	c-5.57-1.96-11.29-3.46-17.14-4.49c-11.93-4.02-26.23-5.68-38.71-7.29c5.35-9.25,7.84-19.24,7.48-29.99
	c-0.03-1.05-0.29-1.11-0.77-0.18c-14.5,28.24-44.78,37.21-52.9-2.81c-3.01-14.81-2.37-29.81,1.91-44.98
	c3.78-13.41,15.32-33.11,32.51-27.16c10.33,3.57,17.32,14.88,19.81,25.49c0.02,0.1,0.11,0.17,0.21,0.17h0.26
	c0.09,0,0.16-0.06,0.17-0.15c1.91-11.56,0.69-22.75-3.68-33.56l0.75-0.25l30.98-6.66c0.29-0.06,0.59,0.08,0.73,0.34
	C907,793.2,984.59,810.68,1051.89,789.84z M1065.03,1437.18c13.19,20.54,36.28,36.26,58.78,44.15c2.66,0.93,5.43,1.52,8.31,1.77
	c0.39,0.03,0.46-0.1,0.21-0.4l-44.94-54.16c-0.2-0.25-0.28-0.58-0.22-0.9c6.31-29.95,11.9-61.63,16.77-95.06
	c2.09-14.34,3.59-28.04,4.52-41.09c0.61-8.44,0.62-15.09,0.04-19.95c-4-33.74-29.71-53.32-62.17-56.52
	c-0.38-0.04-0.67-0.03-0.86,0.04c-0.46,0.16-0.4,0.33,0.19,0.5c35.45,10.28,43.22,43.67,40.84,76.19
	c-3.55,48.59-11.78,96.83-21.64,144.51C1064.8,1436.57,1064.86,1436.9,1065.03,1437.18z M1231.45,1624
	c13.51-2.81,24.35-1.86,37.2-1.63c0.36,0.01,0.44-0.14,0.23-0.43c-19.59-27.59-40.81-53.85-63.66-78.8c-0.2-0.22-0.5-0.32-0.79-0.27
	l-17.91,2.95c-0.25,0.04-0.41,0.27-0.38,0.51c0.01,0.05,0.03,0.11,0.06,0.16l44.48,77.17
	C1230.84,1623.93,1231.15,1624.06,1231.45,1624z"/>
<path class="st4" d="M1183.32,778.32c20.57,11.44,34.26,39.15,38.93,60.69c7.59,35.11,4.3,74.16-15.33,105.06
	c-3.79,5.96-8.18,10.98-13.19,15.06c-0.27,0.21-0.34,0.16-0.23-0.16c21.61-60.77,22.36-123.34-10.37-180.46
	C1182.97,778.22,1183.03,778.15,1183.32,778.32z"/>
<path class="st3" d="M1351.21,820.69c0.21,0.23,0.3,0.43,0.63,0.6c14.71,7.88,28.62,16.96,41.74,27.25
	c-22.18,77.01-41.48,153.7-52.54,233.21c-30.28-2.2-42.33-31.26-43.64-57.68c-1.51-30.53,5.02-58.13,28.34-79.14
	c9.49-8.55,20.66-13.97,33.52-16.25c0.33-0.06,0.33-0.15,0.02-0.26c-1.43-0.52-2.94-0.88-4.53-1.09
	c-25.05-3.24-46.7,8.15-61.58,27.7c-0.21,0.27-0.24,0.25-0.1-0.06c22.61-51.28,22.61-111.79-7.78-159.72
	c-0.26-0.13-0.37-0.25-0.32-0.36c0.15-0.33,0.52-0.48,0.85-0.36C1308.87,802.92,1330.67,811.64,1351.21,820.69z"/>
<path class="st5" d="M1446.99,821.11l-0.2,0.89c-0.33-0.1-0.53-0.01-0.62,0.27c-20.03,63.13-37.8,125.79-53.33,187.98
	c-21.56,86.38-28.14,180.21-7.48,266.73c7.71,32.31,21.25,65.95,43.22,91.06v0.42c-43.82-11.73-67.6-63.41-78.23-103.23
	c-14-52.45-16.93-108.08-11.41-161.97c0.73-7.17,1.43-14.34,2.1-21.51c11.06-79.51,30.36-156.2,52.54-233.21l2.85-8.32
	c0.11-0.3,0.34-0.54,0.63-0.65L1446.99,821.11z"/>
<path class="st3" d="M1446.99,821.11c30.82,7.9,62.22,7.72,93.59,4.63c5.94-0.59,14.43-0.11,25.47,1.44
	c32.77,4.58,51.61,24.19,71.1,48.26c13.19,16.3,29.77,30.36,51.24,36.4c0.27,0.07,0.43,0.34,0.37,0.61
	c-15.48,73.54-32.93,147.42-55.7,219.04c-19.45,61.2-50.1,118.93-93.13,166.86c-28.47,31.71-65.73,61.04-108.4,69.86
	c-0.98,0.21-1.96,0.29-2.95,0.25v-0.42c0.25-0.51,0.44-1.04,0.58-1.58c2.43-9.61,5-19.18,7.71-28.71
	c43.29-19.71,79.78-51.74,106.71-90.79c24.57-35.63,43.8-74.95,57.69-117.98c5.56-17.21,10.73-34.55,15.5-52
	c13.61-49.77,26.08-99.83,37.41-150.19c0.07-0.29-0.07-0.59-0.33-0.74c-17.67-10.06-31.21-18.95-43.8-32.5
	c-1.44-1.55-5.08-5.66-10.91-12.34c-18.62-21.35-40-24.32-67.31-21.93c-3.9,0.34-8.67,0.43-12.33,0.26
	c-18.49-0.89-36.8-3.37-54.92-7.45L1446.79,822L1446.99,821.11z"/>
<path class="st4" d="M1446.79,822l17.79,30.09c-12.16,39.52-23.58,79.15-34.27,118.9c-7.07,26.34-12.74,49.34-17,69
	c-10.76,49.69-15.3,100.51-13.61,152.46c1.62,49.94,11.04,101.9,37.17,145.3c-2.71,9.53-5.28,19.1-7.71,28.71
	c-0.14,0.54-0.33,1.07-0.58,1.58c-21.97-25.11-35.51-58.75-43.22-91.06c-20.66-86.52-14.08-180.35,7.48-266.73
	c15.53-62.19,33.3-124.85,53.33-187.98C1446.26,821.99,1446.47,821.9,1446.79,822z"/>
<path class="st5" d="M1436.87,1337.75c-26.13-43.4-35.55-95.36-37.17-145.3c-1.69-51.95,2.85-102.77,13.61-152.46
	c4.26-19.66,9.93-42.66,17-69c10.69-39.75,22.11-79.38,34.27-118.9c18.12,4.08,36.43,6.56,54.92,7.45
	c3.66,0.17,8.43,0.08,12.33-0.26c27.31-2.39,48.69,0.58,67.31,21.93c5.83,6.68,9.47,10.79,10.91,12.34
	c12.59,13.55,26.13,22.44,43.8,32.5c0.26,0.15,0.4,0.45,0.33,0.74c-11.33,50.36-23.8,100.42-37.41,150.19
	c-4.77,17.45-9.94,34.79-15.5,52c-13.89,43.03-33.12,82.35-57.69,117.98C1516.65,1286.01,1480.16,1318.04,1436.87,1337.75z
	 M1600.36,961.31l-100.86-31.76c-0.32-0.1-0.65,0.08-0.75,0.4c0,0.01-0.01,0.03-0.01,0.04l-15.09,62.97c-0.08,0.34-0.03,0.7,0.15,1
	l18.99,31.8c0.12,0.2,0.1,0.46-0.06,0.63l-37.29,39.74c-0.22,0.24-0.38,0.54-0.46,0.87c-13.26,58.82-13.68,118.63,2.01,177.07
	c0.05,0.19,0.25,0.3,0.45,0.25c0.04-0.01,0.08-0.03,0.11-0.06c47.31-36.53,79.2-88.81,95.21-145.37c0.1-0.34,0.05-0.71-0.12-1.02
	l-17.79-31.7c-0.12-0.2-0.08-0.45,0.09-0.61l40.06-38.53c0.23-0.22,0.39-0.5,0.46-0.81l15.18-64.41
	C1600.7,961.6,1600.57,961.38,1600.36,961.31z"/>
<path class="st4" d="M890.43,858.74c-3.15,39.58-13.13,76.26-34.92,109.74c-20.9,32.12-48.92,58.25-70.9,89.54
	c-15.16,21.59-26.32,45.08-33.48,70.49c-0.1,0.35-0.37,0.53-0.8,0.53c-14.31-9.56-30.04-4.95-45.9-3.47
	c-52.34,4.9-99.7-20.32-123.27-67.19c-0.09-0.17-0.29-0.24-0.45-0.16c-0.05,0.03-0.1,0.07-0.13,0.12c-4.49,6.55-7.63,13.7-9.4,21.44
	c-0.09,0.36-0.26,0.41-0.52,0.15c-20.65-20.26-30.65-53.2-36.52-80.92c-0.04-0.17-0.21-0.27-0.37-0.23
	c-0.05,0.01-0.09,0.03-0.12,0.06c-54.96,45.94-44.4,128.6,6.06,172.38c0.23,0.2,0.28,0.54,0.1,0.79
	c-4.11,5.82-9.31,10.42-15.59,13.8c-0.39,0.21-0.39,0.43-0.02,0.66c47.14,28.98,104.46,38.71,158.56,26.69
	c22.04-4.9,42.65-13.71,60.45-27.21c1.19,22.22,6.01,43.61,14.44,64.17c24.65,60.13,72.11,104.48,138.67,111.17
	c3.42,0.35,7.46,0.49,12.12,0.44c0.17,0,0.31-0.15,0.3-0.32c0-0.05-0.01-0.09-0.03-0.13c-6.79-13.18-10.87-27.59-12.23-43.23
	c-4.57-52.58,11.69-104.01,44.47-144.96c2.78-3.47,6.8-8.11,12.06-13.93c0.18-0.21,0.17-0.52-0.03-0.7c0,0,0,0,0,0
	c-20.23-17.92-38.98-36.71-56.25-56.37c-13.69-15.57-26.11-39.47-25.3-59.89c0.02-0.54,0.2-0.6,0.54-0.19
	c23.55,28.13,49.01,54.39,76.36,78.78l39.12,35.79c0.16,0.15,0.18,0.4,0.03,0.56c-0.01,0.02-0.03,0.03-0.05,0.05
	c-36.32,29.19-59.05,66.34-68.19,111.44c-5.01,24.75-5.41,54.19,4.66,77.81c0.29,0.68,0.92,1.15,1.65,1.24
	c10.53,1.2,20.88,1.07,31.03-0.39c-38.7,49.41-111.59,69.83-171.71,65.58c-0.3-0.02-0.59,0.14-0.73,0.41
	c-18.01,35.99-43.7,69.49-71.94,98.68c-12.25,12.66-23.3,19.82-40.41,21.49c-0.31,0.03-0.59,0.21-0.75,0.47
	c-24.73,41.39-65.75,76.77-116.19,78.29c-24.21,0.73-46.58-5.48-67.1-18.63c-18.53-11.87-29.97-37.13-33.1-58.09
	c-7.44-49.79,27.65-87.29,69.04-107.3c1.7-0.82,3.53-1.3,5.48-1.45c5.23-0.39,10.44-0.74,15.62-1.06c0.45-0.03,0.53-0.21,0.23-0.54
	l-10-11.26c-0.13-0.15-0.12-0.39,0.04-0.52c0.04-0.04,0.09-0.06,0.14-0.08c67.7-17.11,124.7-48.48,153.04-115.83
	c1.75-4.15,3.47-8.33,5.17-12.53c0.11-0.28,0.38-0.46,0.68-0.45c18.13,0.31,35.97-1.75,53.52-6.2c0.38-0.1,0.61-0.5,0.51-0.88
	c-0.01-0.04-0.03-0.09-0.05-0.13c-9.26-19.08-15.7-39.07-19.33-59.97c-0.04-0.2-0.23-0.33-0.43-0.3c-0.04,0.01-0.08,0.02-0.11,0.04
	c-14.26,7.78-28.72,13.11-43.38,15.98c-69.06,13.56-144.94-0.92-198.8-48.1c-0.69-0.6-0.58-0.99,0.32-1.18
	c9.95-2.07,18.78-6.37,26.49-12.9c0.2-0.18,0.22-0.48,0.05-0.67c-0.01-0.01-0.01-0.01-0.02-0.02c-6.73-6.89-12.38-14.54-16.97-22.95
	c-35.68-65.53-13.06-145.32,50.67-182.65c0.13-0.08,0.31-0.03,0.38,0.11c0.02,0.03,0.03,0.07,0.04,0.11
	c2.73,25.92,8.77,55.74,20.8,78.68c0.19,0.35,0.38,0.35,0.57,0c4.35-7.76,9.32-15.1,14.9-22.01c0.44-0.54,0.76-0.48,0.96,0.18
	c20.46,67.67,87.09,100.3,154.18,82.81c0.3-0.08,0.54-0.3,0.65-0.59c6.31-17.49,14.84-33.83,25.59-49.04
	c26.71-37.8,61.44-69.51,83.45-110.66c14.94-27.92,23.34-57.88,25.21-89.88C879.15,855.28,884.86,856.78,890.43,858.74z
	 M583.68,1441.44c-16.82,1.16-33.65,2.35-50.49,3.57c-1.96,0.15-3.77,0.63-5.44,1.45c-35.54,17.44-62.66,50.36-54.23,92.33
	c5.21,25.9,24.35,44.4,49.56,51.23c26.36,7.13,51.48,4.02,75.37-9.34c27.54-15.4,48.07-37.35,61.58-65.86
	c0.13-0.27,0.41-0.42,0.7-0.37c13.27,1.99,24.45-1.52,33.53-10.53c21.55-21.39,41.17-45.85,58.85-73.4
	c7.68-11.98,13.89-24.32,18.64-37.02c0.1-0.28,0.38-0.45,0.67-0.41c4.64,0.58,9.28,1.11,13.91,1.59
	c33.43,3.45,65.53-1.44,96.3-14.67c0.55-0.23,0.53-0.4-0.06-0.5c-52.93-8.98-95.92-39.31-124.7-84.43
	c-0.17-0.26-0.48-0.39-0.78-0.32c-16.71,3.94-33.64,6.53-50.77,7.76c-0.31,0.03-0.57,0.21-0.69,0.49
	c-25.52,61.47-74.94,99.7-137.57,119.05c-0.31,0.1-0.48,0.43-0.39,0.74c0.03,0.08,0.07,0.16,0.13,0.22l16.04,18.01
	C584.07,1441.28,584.02,1441.42,583.68,1441.44z"/>
<path class="st5" d="M933.87,875c3.87,8.19,8.34,16.03,13.42,23.53c23.71,35.02,54.63,66.71,90.62,89.25
	c0.19,0.12,0.24,0.38,0.12,0.57c-0.02,0.03-0.04,0.05-0.06,0.07l-40.54,38.73l-13.85,13.39l-62.89-47.24
	c-0.27-0.2-0.4-0.13-0.39,0.21c1.25,31.42,50.04,67.71,73.47,84.44c0.18,0.13,0.22,0.39,0.09,0.57c-0.01,0.02-0.03,0.04-0.05,0.06
	l-33.02,30.92l-12.46,11.29c-27.35-24.39-52.81-50.65-76.36-78.78c-0.34-0.41-0.52-0.35-0.54,0.19
	c-0.81,20.42,11.61,44.32,25.3,59.89c17.27,19.66,36.02,38.45,56.25,56.37c0.2,0.18,0.22,0.49,0.03,0.7c0,0,0,0,0,0
	c-5.26,5.82-9.28,10.46-12.06,13.93c-32.78,40.95-49.04,92.38-44.47,144.96c1.36,15.64,5.44,30.05,12.23,43.23
	c0.08,0.15,0.02,0.34-0.14,0.42c-0.04,0.02-0.09,0.03-0.13,0.03c-4.66,0.05-8.7-0.09-12.12-0.44
	c-66.56-6.69-114.02-51.04-138.67-111.17c-8.43-20.56-13.25-41.95-14.44-64.17c-0.46-18.87,2-37.35,7.37-55.45
	c0.14-0.47,0.06-0.96-0.25-1.46c0.43,0,0.7-0.18,0.8-0.53c7.16-25.41,18.32-48.9,33.48-70.49c21.98-31.29,50-57.42,70.9-89.54
	c21.79-33.48,31.77-70.16,34.92-109.74C905.42,862.85,919.9,868.27,933.87,875z M867.52,1196.06c2.87,2.63,5.06,4.5,6.59,5.61
	c0.21,0.15,0.49,0.1,0.64-0.11c0.01-0.02,0.03-0.04,0.04-0.07c3.85-8.34,8.15-16.44,12.9-24.31c0.15-0.25,0.09-0.58-0.14-0.76
	c-25.81-20.32-43.17-45.69-59.16-73.96c-0.29-0.53-0.46-0.49-0.5,0.11C825.68,1139.08,840.81,1171.61,867.52,1196.06z
	 M801.05,1193.76c-2,37.14,23.91,80.48,55.77,98.99c0.32,0.19,0.47,0.1,0.44-0.27c-0.75-10.65-0.61-21.29,0.41-31.92
	c0.03-0.33-0.1-0.66-0.36-0.87c-16.02-13.26-29.92-27.7-40.4-44.52c-4.8-7.71-9.64-16.47-14.52-26.3c-0.15-0.3-0.28-0.29-0.39,0.03
	C801.46,1190.45,801.15,1192.07,801.05,1193.76z"/>
<path class="st5" d="M718.87,862.5c20.73,7.07,41.73,8.04,63,2.92c25.08,22.58,23.72,60.77-5.56,79.62
	c-16.94,10.91-42.52,11.73-59.17-1.83C691.45,922.28,695.71,883.34,718.87,862.5z M738.44,934.54c19.38,6.91,38.43-7.13,41.49-26.52
	c2.15-13.68-5.9-30.76-20.99-34.26c-0.33-0.07-0.44,0.05-0.33,0.37c7.82,22.81,2.07,47.88-20.23,59.53
	C737.74,934,737.76,934.29,738.44,934.54z"/>
<path class="st4" d="M738.44,934.54c-0.69-0.25-0.71-0.54-0.06-0.88c22.3-11.65,28.05-36.72,20.23-59.53
	c-0.11-0.32,0-0.44,0.33-0.37c15.09,3.5,23.14,20.58,20.99,34.26C776.87,927.41,757.82,941.45,738.44,934.54z"/>
<path class="st4" d="M933.87,875c22.32,9.96,43.95,29.73,60.48,47.49c23.44,25.2,46.51,47.18,76.88,64.05
	c0.11,0.06,0.15,0.2,0.09,0.31c-0.01,0.02-0.03,0.04-0.04,0.06l-54.99,53.56c-0.13,0.13-0.33,0.14-0.47,0.03l-18.39-13.35
	l40.54-38.73c0.16-0.16,0.17-0.42,0.01-0.58c-0.02-0.02-0.05-0.04-0.07-0.06c-35.99-22.54-66.91-54.23-90.62-89.25
	C942.21,891.03,937.74,883.19,933.87,875z"/>
<path class="st4" d="M1600.36,961.31c0.21,0.07,0.33,0.29,0.28,0.5l-15.18,64.41c-0.07,0.31-0.23,0.59-0.46,0.81l-40.06,38.53
	c-0.17,0.16-0.21,0.41-0.09,0.61l17.79,31.7c0.17,0.31,0.22,0.68,0.12,1.02c-16.01,56.56-47.9,108.84-95.21,145.37
	c-0.16,0.12-0.39,0.08-0.5-0.08c-0.03-0.03-0.04-0.07-0.06-0.11c-15.69-58.44-15.27-118.25-2.01-177.07
	c0.08-0.33,0.24-0.63,0.46-0.87l37.29-39.74c0.16-0.17,0.18-0.43,0.06-0.63l-18.99-31.8c-0.18-0.3-0.23-0.66-0.15-1l15.09-62.97
	c0.07-0.32,0.4-0.52,0.72-0.45c0.01,0,0.03,0.01,0.04,0.01L1600.36,961.31z M1574.28,973.16l-36.47-9.93
	c-0.5-0.14-0.63,0.02-0.38,0.47l27.4,50.09c0.23,0.43,0.41,0.4,0.52-0.07l9.34-39.87C1574.76,973.54,1574.58,973.24,1574.28,973.16z
	"/>
<path class="st5" d="M1574.28,973.16c0.3,0.08,0.48,0.38,0.41,0.69l-9.34,39.87c-0.11,0.47-0.29,0.5-0.52,0.07l-27.4-50.09
	c-0.25-0.45-0.12-0.61,0.38-0.47L1574.28,973.16z"/>
<path class="st4" d="M983.58,1040.54l45.49,34.64c0.11,0.09,0.12,0.24,0.04,0.35c-0.01,0.01-0.02,0.02-0.03,0.03l-52.15,47.35
	c-0.21,0.21-0.55,0.21-0.78,0.01l-15.36-13.42l33.02-30.92c0.16-0.16,0.17-0.41,0.02-0.58c-0.02-0.02-0.04-0.04-0.06-0.05
	c-23.43-16.73-72.22-53.02-73.47-84.44c-0.01-0.34,0.12-0.41,0.39-0.21L983.58,1040.54z"/>
<path class="st3" d="M750.33,1129.04c0.31,0.5,0.39,0.99,0.25,1.46c-5.37,18.1-7.83,36.58-7.37,55.45
	c-17.8,13.5-38.41,22.31-60.45,27.21c-54.1,12.02-111.42,2.29-158.56-26.69c-0.37-0.23-0.37-0.45,0.02-0.66
	c6.28-3.38,11.48-7.98,15.59-13.8c0.18-0.25,0.13-0.59-0.1-0.79c-50.46-43.78-61.02-126.44-6.06-172.38
	c0.13-0.11,0.32-0.09,0.43,0.04c0.03,0.04,0.05,0.08,0.06,0.13c5.87,27.72,15.87,60.66,36.52,80.92c0.26,0.26,0.43,0.21,0.52-0.15
	c1.77-7.74,4.91-14.89,9.4-21.44c0.1-0.15,0.3-0.2,0.46-0.09c0.05,0.03,0.09,0.08,0.12,0.13c23.57,46.87,70.93,72.09,123.27,67.19
	C720.29,1124.09,736.02,1119.48,750.33,1129.04z"/>
<path class="st5" d="M1067.83,1177.71c9.59-31.03,24.1-61.09,44.5-86.5c28.73-22.09,59.96-39.95,93.69-53.57
	c0.29-0.12,0.62,0,0.77,0.27l26.78,48.7c0.13,0.24,0.05,0.54-0.19,0.67c0,0,0,0,0,0c-23.24,12.38-46.78,24.1-69.15,37.95
	c-0.22,0.14-0.3,0.43-0.16,0.65c0.01,0.02,0.03,0.05,0.05,0.07l14.61,16.66c0.15,0.16,0.13,0.42-0.03,0.56
	c-0.02,0.02-0.05,0.04-0.08,0.06c-24.65,13.02-45.79,27.99-75.86,47.8c-0.26,0.17-0.59,0.17-0.84,0.01
	C1091.44,1184.31,1080.07,1179.87,1067.83,1177.71z"/>
<path class="st4" d="M867.52,1196.06c-26.71-24.45-41.84-56.98-39.63-93.49c0.04-0.6,0.21-0.64,0.5-0.11
	c15.99,28.27,33.35,53.64,59.16,73.96c0.23,0.18,0.29,0.51,0.14,0.76c-4.75,7.87-9.05,15.97-12.9,24.31
	c-0.11,0.23-0.38,0.33-0.61,0.22c-0.02-0.01-0.05-0.02-0.07-0.04C872.59,1200.56,870.39,1198.69,867.52,1196.06z"/>
<path class="st4" d="M856.82,1292.75c-31.86-18.51-57.77-61.85-55.77-98.99c0.09-1.69,0.41-3.31,0.95-4.86
	c0.11-0.32,0.24-0.33,0.39-0.03c4.88,9.83,9.72,18.59,14.52,26.3c10.48,16.82,24.38,31.26,40.4,44.52c0.26,0.21,0.39,0.54,0.36,0.87
	c-1.02,10.63-1.16,21.27-0.41,31.92C857.29,1292.85,857.14,1292.94,856.82,1292.75z"/>
<path class="st4" d="M1123.81,1481.33c-22.5-7.89-45.59-23.61-58.78-44.15c-0.17-0.28-0.23-0.61-0.17-0.92
	c9.86-47.68,18.09-95.92,21.64-144.51c2.38-32.52-5.39-65.91-40.84-76.19c-0.59-0.17-0.65-0.34-0.19-0.5
	c0.19-0.07,0.48-0.08,0.86-0.04c32.46,3.2,58.17,22.78,62.17,56.52c0.58,4.86,0.57,11.51-0.04,19.95
	c-0.93,13.05-2.43,26.75-4.52,41.09c-4.87,33.43-10.46,65.11-16.77,95.06c-0.06,0.32,0.02,0.65,0.22,0.9l44.94,54.16
	c0.25,0.3,0.18,0.43-0.21,0.4C1129.24,1482.85,1126.47,1482.26,1123.81,1481.33z"/>
<path class="st3" d="M583.68,1441.44c0.33-0.02,0.39-0.16,0.16-0.41l-16.04-18.01c-0.22-0.24-0.2-0.61,0.04-0.83
	c0.06-0.06,0.14-0.1,0.22-0.13c62.63-19.35,112.05-57.58,137.57-119.05c0.12-0.28,0.38-0.46,0.69-0.49
	c17.13-1.23,34.06-3.82,50.77-7.76c0.3-0.07,0.61,0.06,0.78,0.32c28.78,45.12,71.77,75.45,124.7,84.43c0.59,0.1,0.61,0.27,0.06,0.5
	c-30.77,13.23-62.87,18.12-96.3,14.67c-4.63-0.48-9.27-1.01-13.91-1.59c-0.29-0.04-0.57,0.13-0.67,0.41
	c-4.75,12.7-10.96,25.04-18.64,37.02c-17.68,27.55-37.3,52.01-58.85,73.4c-9.08,9.01-20.26,12.52-33.53,10.53
	c-0.29-0.05-0.57,0.1-0.7,0.37c-13.51,28.51-34.04,50.46-61.58,65.86c-23.89,13.36-49.01,16.47-75.37,9.34
	c-25.21-6.83-44.35-25.33-49.56-51.23c-8.43-41.97,18.69-74.89,54.23-92.33c1.67-0.82,3.48-1.3,5.44-1.45
	C550.03,1443.79,566.86,1442.6,583.68,1441.44z M746.48,1393.62c-10.16-1.71-18.05,1.16-23.66,8.63
	c-20.78,27.63-39.95,55.9-66.15,78.89c-0.21,0.18-0.25,0.5-0.08,0.72c13.51,17.85,32.53-5.37,40.98-15.13
	c18.69-21.59,37.05-46.5,49.28-72.4c0.12-0.25,0.01-0.55-0.23-0.67C746.58,1393.64,746.53,1393.63,746.48,1393.62z M605.51,1539.16
	c-29.92,11.95-78.99,21.09-107.5,0.81c-0.47-0.33-0.6-0.23-0.4,0.3c11.46,30.28,50.35,36,77.51,25.65
	c17.95-6.83,33.07-17.92,45.36-33.26c0.21-0.26,0.16-0.32-0.14-0.18C612.07,1536.29,607.13,1538.52,605.51,1539.16z"/>
<path class="st4" d="M746.48,1393.62c0.27,0.04,0.46,0.3,0.41,0.57c-0.01,0.05-0.02,0.09-0.04,0.14
	c-12.23,25.9-30.59,50.81-49.28,72.4c-8.45,9.76-27.47,32.98-40.98,15.13c-0.17-0.22-0.13-0.54,0.08-0.72
	c26.2-22.99,45.37-51.26,66.15-78.89C728.44,1394.78,736.32,1391.91,746.48,1393.62z"/>
<path class="st4" d="M498.01,1539.97c28.51,20.28,77.58,11.14,107.5-0.81c1.61-0.64,6.56-2.87,14.83-6.68
	c0.3-0.14,0.35-0.08,0.14,0.18c-12.29,15.34-27.41,26.43-45.36,33.26c-27.16,10.35-66.05,4.63-77.51-25.65
	C497.41,1539.74,497.55,1539.64,498.01,1539.97z"/>
<path class="st4" d="M1268.65,1622.37c-12.85-0.23-23.69-1.18-37.2,1.63c-0.31,0.06-0.62-0.07-0.77-0.34l-44.48-77.17
	c-0.12-0.22-0.05-0.49,0.16-0.61c0.05-0.03,0.1-0.05,0.16-0.06l17.91-2.95c0.29-0.05,0.59,0.05,0.79,0.27
	c22.85,24.95,44.07,51.21,63.66,78.8C1269.09,1622.23,1269.01,1622.38,1268.65,1622.37z"/>
</svg>
